<svg width="21" height="16" viewBox="0 0 21 16" fill="none" xmlns="http://www.w3.org/2000/svg">
<path d="M0.725093 1.97492L19.4682 1.97492C19.8131 1.97492 20.0928 1.55489 20.0926 1.03745C20.0924 0.51993 19.8123 0.099977 19.4675 0.099977L0.724365 0.0999756C0.379477 0.0999756 0.0997725 0.520007 0.0999734 1.03745C0.100174 1.55489 0.380257 1.97492 0.725093 1.97492Z" fill="black" stroke="white" stroke-width="0.2"/>
<path d="M19.4678 6.66235L0.724609 6.66235C0.379721 6.66235 0.100017 7.08238 0.100218 7.59982C0.100418 8.11726 0.380501 8.53729 0.725337 8.53729L19.4685 8.53729C19.8134 8.53729 20.0931 8.11726 20.0929 7.59982C20.0927 7.08238 19.8126 6.66235 19.4678 6.66235Z" fill="black" stroke="white" stroke-width="0.2"/>
<path d="M19.4675 13.225L6.97228 13.225C6.6274 13.225 6.34769 13.645 6.34788 14.1624C6.34807 14.68 6.62814 15.0999 6.97297 15.0999L19.4682 15.0999C19.8131 15.0999 20.0928 14.6799 20.0926 14.1624C20.0925 13.6449 19.8124 13.225 19.4675 13.225Z" fill="black" stroke="white" stroke-width="0.2"/>
</svg>
